# xmcd
#
# Track frame offsets:
#	150
#	4511
#	22186
#	35834
#	61034
#	77084
#	89385
#	103551
#	122932
#	142276
#
# Disc length: 2214 seconds
#
# Revision: 1
# Processed by: cddbd v1.5.1PL0 Copyright (c) Steve Scherf et al.
# Submitted via: EasyCDDAExtractor 7.1.0.1
#
DISCID=8408a40a
DTITLE=Blue Penguin - Nine Below Zero
DYEAR=1900
DGENRE=Acapella
TTITLE0=Into: Penguin Award
TTITLE1=Video Killed the Radio Star
TTITLE2=I can`t give you anything but Love
TTITLE3=Take A Bow
TTITLE4=Un Bacio A Mezzanotte
TTITLE5=Dream A little Dream of me
TTITLE6=Zombie Jamboree
TTITLE7=Simple Days
TTITLE8=My Baby just cares for me
TTITLE9=Just can`t get enough
EXTD=
EXTT0=
EXTT1=
EXTT2=
EXTT3=
EXTT4=
EXTT5=
EXTT6=
EXTT7=
EXTT8=
EXTT9=
PLAYORDER=
